HIERARCHY
ROOT Hips
{
	OFFSET 0.000000 89.005402 0.000000
	CHANNELS 6 Xposition Yposition Zposition Xrotation Yrotation Zrotation
	JOINT Spine
	{
		OFFSET 0.116900 10.681000 0.373400
		CHANNELS 3 Xrotation Yrotation Zrotation
		JOINT Spine1
		{
			OFFSET 0.000000 13.840401 0.053500
			CHANNELS 3 Xrotation Yrotation Zrotation
			JOINT Spine2
			{
				OFFSET 0.000000 14.712700 -0.366200
				CHANNELS 3 Xrotation Yrotation Zrotation
				JOINT Neck
				{
					OFFSET 0.000000 35.415497 -3.314200
					CHANNELS 3 Xrotation Yrotation Zrotation
					JOINT Head
					{
						OFFSET 0.000000 16.899200 1.218300
						CHANNELS 3 Xrotation Yrotation Zrotation
						JOINT HeadTop_End
						{
							OFFSET 0.000000 22.206207 2.192500
							CHANNELS 3 Xrotation Yrotation Zrotation
							End Site
							{
								OFFSET 0.000000 22.314178 0.000000
							}
						}
					}
				}
				JOINT LeftShoulder
				{
					OFFSET 12.896400 26.716293 -4.548400
					CHANNELS 3 Xrotation Yrotation Zrotation
					JOINT LeftArm
					{
						OFFSET 19.027000 -4.857010 -1.718400
						CHANNELS 3 Xrotation Yrotation Zrotation
						JOINT LeftForeArm
						{
							OFFSET 24.179897 0.000000 0.000000
							CHANNELS 3 Xrotation Yrotation Zrotation
							JOINT LeftHand
							{
								OFFSET 27.156403 0.000000 0.000000
								CHANNELS 3 Xrotation Yrotation Zrotation
								JOINT LeftHandIndex1
								{
									OFFSET 16.441200 0.000000 0.000000
									CHANNELS 3 Xrotation Yrotation Zrotation
									JOINT LeftHandIndex2
									{
										OFFSET 4.821899 0.000000 0.000000
										CHANNELS 3 Xrotation Yrotation Zrotation
										JOINT LeftHandIndex3
										{
											OFFSET 6.386497 0.000000 0.000000
											CHANNELS 3 Xrotation Yrotation Zrotation
											JOINT LeftHandIndex4
											{
												OFFSET 5.188988 0.000000 0.000000
												CHANNELS 3 Xrotation Yrotation Zrotation
												End Site
												{
													OFFSET -0.178703 5.185913 0.000177
												}
											}
										}
									}
								}
								JOINT LeftHandThumb1
								{
									OFFSET 6.534897 -5.032593 5.900300
									CHANNELS 3 Xrotation Yrotation Zrotation
									JOINT LeftHandThumb2
									{
										OFFSET 3.818176 -2.204422 2.204423
										CHANNELS 3 Xrotation Yrotation Zrotation
										JOINT LeftHandThumb3
										{
											OFFSET 3.252098 -1.877594 1.877601
											CHANNELS 3 Xrotation Yrotation Zrotation
											JOINT LeftHandThumb4
											{
												OFFSET 5.251778 -3.032120 3.032117
												CHANNELS 3 Xrotation Yrotation Zrotation
												End Site
												{
													OFFSET 0.000023 6.780014 0.000000
												}
											}
										}
									}
								}
							}
						}
					}
				}
				JOINT RightShoulder
				{
					OFFSET -12.896300 26.716293 -4.548400
					CHANNELS 3 Xrotation Yrotation Zrotation
					JOINT RightArm
					{
						OFFSET -19.027000 -4.857010 -1.718400
						CHANNELS 3 Xrotation Yrotation Zrotation
						JOINT RightForeArm
						{
							OFFSET -24.179897 0.000000 0.000000
							CHANNELS 3 Xrotation Yrotation Zrotation
							JOINT RightHand
							{
								OFFSET -27.156403 0.000000 0.000000
								CHANNELS 3 Xrotation Yrotation Zrotation
								JOINT RightHandThumb1
								{
									OFFSET -6.591202 -4.852203 5.988100
									CHANNELS 3 Xrotation Yrotation Zrotation
									JOINT RightHandThumb2
									{
										OFFSET -3.818176 -2.204422 2.204423
										CHANNELS 3 Xrotation Yrotation Zrotation
										JOINT RightHandThumb3
										{
											OFFSET -3.252098 -1.877594 1.877601
											CHANNELS 3 Xrotation Yrotation Zrotation
											JOINT RightHandThumb4
											{
												OFFSET -5.251778 -3.032120 3.032117
												CHANNELS 3 Xrotation Yrotation Zrotation
												End Site
												{
													OFFSET -0.000023 6.780014 0.000000
												}
											}
										}
									}
								}
								JOINT RightHandIndex1
								{
									OFFSET -16.029404 0.000000 0.000000
									CHANNELS 3 Xrotation Yrotation Zrotation
									JOINT RightHandIndex2
									{
										OFFSET -5.213303 0.000000 0.000000
										CHANNELS 3 Xrotation Yrotation Zrotation
										JOINT RightHandIndex3
										{
											OFFSET -6.386528 0.000000 0.000000
											CHANNELS 3 Xrotation Yrotation Zrotation
											JOINT RightHandIndex4
											{
												OFFSET -5.189026 0.000000 0.000000
												CHANNELS 3 Xrotation Yrotation Zrotation
												End Site
												{
													OFFSET 0.236702 5.183624 0.001972
												}
											}
										}
									}
								}
							}
						}
					}
				}
			}
		}
	}
	JOINT LeftUpLeg
	{
		OFFSET 14.073000 -7.904099 -1.463000
		CHANNELS 3 Xrotation Yrotation Zrotation
		JOINT LeftLeg
		{
			OFFSET -0.109806 -34.073280 4.093200
			CHANNELS 3 Xrotation Yrotation Zrotation
			JOINT LeftFoot
			{
				OFFSET 0.109806 -29.899420 -6.319000
				CHANNELS 3 Xrotation Yrotation Zrotation
				JOINT LeftToeBase
				{
					OFFSET 1.551100 -14.988700 20.535801
					CHANNELS 3 Xrotation Yrotation Zrotation
					JOINT LeftToe_End
					{
						OFFSET 0.221200 0.570800 13.248301
						CHANNELS 3 Xrotation Yrotation Zrotation
						End Site
						{
							OFFSET 0.000000 13.262435 0.000000
						}
					}
				}
			}
		}
	}
	JOINT RightUpLeg
	{
		OFFSET -13.839300 -7.904099 -1.463000
		CHANNELS 3 Xrotation Yrotation Zrotation
		JOINT RightLeg
		{
			OFFSET 0.109694 -34.073219 4.093300
			CHANNELS 3 Xrotation Yrotation Zrotation
			JOINT RightFoot
			{
				OFFSET -0.109694 -29.899384 -6.319200
				CHANNELS 3 Xrotation Yrotation Zrotation
				JOINT RightToeBase
				{
					OFFSET -1.551100 -14.988700 20.535801
					CHANNELS 3 Xrotation Yrotation Zrotation
					JOINT RightToe_End
					{
						OFFSET -0.221200 0.570900 13.248299
						CHANNELS 3 Xrotation Yrotation Zrotation
						End Site
						{
							OFFSET 0.000000 13.262440 0.000000
						}
					}
				}
			}
		}
	}
}
MOTION
Frames: 8
Frame Time: 0.033333
-1.243637 75.904114 0.923195 -2.929217 -57.880594 -5.734346 -0.331330 3.246621 -0.085541 0.062209 5.104721 0.366799 -0.031227 5.111060 0.376765 20.945673 3.839155 7.525072 4.259132 27.338783 0.105869 0.000002 -0.000000 0.000002 0.511066 -1.976296 -4.446792 -46.892838 -16.353587 -51.198408 -0.000061 -63.859079 -0.000062 -149.127386 -5.510330 32.431268 0.480487 2.531467 -21.490652 0.480470 2.531458 -21.490668 0.121096 1.288318 -10.740023 -0.000001 0.000001 -0.000001 -1.540035 3.690181 6.142357 3.939043 7.948700 0.746811 -0.579466 1.575002 2.538717 -0.000000 -0.000001 0.000000 0.640988 -3.820787 10.839936 -36.050025 73.715411 67.240043 0.000119 97.147017 -0.000114 -65.671777 -4.534576 -48.996365 -1.849239 -3.581772 -6.586145 4.637197 -8.634138 -0.225406 -1.273762 0.137302 -2.094882 -0.000001 0.000000 0.000000 3.537023 -6.056798 60.536964 3.537019 -6.056797 60.536964 0.945230 -3.505301 30.174895 -0.000000 -0.000000 0.000002 -41.150466 9.443118 35.633339 31.645831 -3.537922 3.847812 12.274503 -0.338868 -20.119393 -5.078446 -0.000002 -0.000012 0.000000 0.000000 0.000000 -3.830754 -23.619498 -29.190275 27.782918 -6.471834 -7.400291 -7.729387 -12.650264 23.941888 -2.065541 0.000022 0.000003 0.000000 -0.000000 0.000000 
-0.752790 76.177460 0.805111 -4.255157 -55.549812 -6.709276 -0.212957 2.971935 -0.523954 0.269464 4.704052 0.007148 0.178334 4.715327 0.030184 20.715132 3.838843 7.631973 4.544507 27.168512 0.589718 -0.000000 -0.000000 0.000001 0.502463 -2.045250 -3.427243 -46.632434 -17.531644 -53.182404 0.000075 -65.807677 0.000083 -148.042711 -7.895569 32.731636 0.480488 2.531469 -21.490652 0.480471 2.531456 -21.490664 0.121091 1.288321 -10.740020 0.000000 -0.000004 -0.000003 -1.540033 3.690183 6.142357 3.939045 7.948697 0.746810 -0.579467 1.575003 2.538717 0.000001 -0.000002 -0.000001 0.599953 -5.298150 11.240832 -30.897536 72.824071 63.138125 0.000365 99.471214 -0.000378 -66.734384 -5.121348 -50.186451 -1.849237 -3.581772 -6.586145 4.637198 -8.634140 -0.225404 -1.273763 0.137301 -2.094882 -0.000001 -0.000000 0.000001 3.714729 -6.153275 62.207970 3.714748 -6.153279 62.207956 0.996594 -3.591962 31.004131 -0.000001 -0.000000 -0.000000 -40.109101 8.737127 33.387594 29.837343 -3.504816 4.426739 13.610777 -0.572362 -19.711308 -4.714561 0.000004 0.000000 -0.000000 -0.000001 -0.000000 -2.075979 -25.618795 -29.181007 26.677459 -6.660149 -7.004094 -7.360651 -12.641417 23.412423 -2.058859 -0.000021 -0.000004 0.000000 0.000002 0.000002 
-0.202071 75.801071 0.660895 -5.589893 -56.522541 -7.219273 0.166012 1.784517 -0.525317 0.638734 2.911397 -0.088377 0.619175 2.916280 -0.060690 20.562206 4.492046 4.552231 11.061146 30.413477 -2.288278 -0.000002 -0.000001 -0.000000 0.506232 0.616411 -7.745784 -44.365296 -12.851397 -51.164711 0.000087 -77.357302 0.000107 -142.606864 -12.472994 36.277163 0.480486 2.531473 -21.490652 0.480473 2.531458 -21.490668 0.121093 1.288320 -10.740025 -0.000002 -0.000000 0.000001 -1.540033 3.690182 6.142357 3.939044 7.948699 0.746809 -0.579466 1.575004 2.538718 -0.000002 0.000000 0.000000 0.548524 -5.669020 11.751463 -13.657294 78.007126 44.981635 0.000120 104.671720 -0.000132 -68.994254 -6.791652 -58.390795 -1.849240 -3.581772 -6.586145 4.637196 -8.634139 -0.225400 -1.273763 0.137302 -2.094883 -0.000001 0.000000 -0.000001 3.537020 -6.056813 60.536957 3.536990 -6.056820 60.536950 0.945272 -3.505309 30.174912 0.000000 -0.000000 0.000001 -39.818698 9.802673 34.162653 30.259855 -2.891110 3.432898 13.877913 -0.590960 -20.182951 -4.082530 0.000016 -0.000003 -0.000000 0.000000 -0.000000 -3.697324 -24.552174 -30.831276 28.612016 -6.212600 -7.705441 -8.303779 -11.622771 24.107919 -1.780566 0.000014 -0.000002 0.000001 -0.000000 -0.000002 
0.217984 75.649643 0.613143 -7.121335 -57.117863 -8.321520 0.474513 2.626020 -0.945196 0.797447 4.222167 -0.151896 0.757330 4.228430 -0.111444 19.801362 3.475372 7.760181 10.998116 26.261901 -0.704788 -0.000000 -0.000003 0.000002 0.548307 -1.964693 -7.554116 -45.731979 -14.440755 -51.558328 0.000006 -69.392133 0.000003 -143.205025 -7.675265 31.931623 0.480489 2.531471 -21.490652 0.480471 2.531455 -21.490664 0.121093 1.288320 -10.740028 0.000000 0.000002 -0.000003 -1.540031 3.690184 6.142358 3.939048 7.948703 0.746813 -0.579466 1.575003 2.538719 -0.000001 0.000001 0.000000 0.503361 -6.098214 11.917463 -20.623790 77.518809 47.954543 0.000011 103.479750 0.000015 -63.316161 -21.383557 -56.618641 -1.849238 -3.581772 -6.586149 4.637197 -8.634138 -0.225405 -1.273762 0.137302 -2.094884 -0.000000 -0.000001 0.000001 3.537024 -6.056837 60.536950 3.537033 -6.056806 60.536964 0.945265 -3.505305 30.174895 0.000001 -0.000001 0.000001 -39.710771 10.112990 34.300261 31.403239 -3.236604 3.404791 13.319361 -0.483814 -19.454445 -4.449344 -0.000002 0.000001 0.000000 0.000002 -0.000000 -3.993745 -24.192383 -31.329606 28.841328 -6.001697 -8.638693 -8.133134 -11.041559 25.083272 -1.563929 -0.000016 -0.000001 0.000000 0.000000 -0.000000 
-0.171699 75.576523 0.668168 -5.412574 -57.565838 -7.109286 0.332133 2.765113 -0.504030 0.630498 4.401582 0.127500 0.587735 4.406703 0.152097 20.076692 3.743534 7.170738 7.905928 26.781278 0.096395 -0.000001 -0.000002 -0.000001 0.531759 -1.604950 -7.228049 -46.915531 -14.252484 -51.121753 -0.000052 -67.467270 -0.000044 -145.423047 -6.315844 32.812311 0.480487 2.531470 -21.490652 0.480474 2.531453 -21.490666 0.121094 1.288320 -10.740020 -0.000001 -0.000000 -0.000000 -1.540033 3.690181 6.142356 3.939047 7.948700 0.746812 -0.579467 1.575003 2.538718 0.000003 0.000002 0.000000 0.633409 -4.235776 11.112038 -32.068599 73.849187 62.522862 0.000073 101.234291 -0.000081 -62.559028 -20.668849 -53.552590 -1.849239 -3.581772 -6.586142 4.637198 -8.634140 -0.225402 -1.273763 0.137303 -2.094881 0.000001 -0.000000 -0.000000 3.537012 -6.056814 60.536957 3.537026 -6.056797 60.536957 0.945231 -3.505321 30.174891 0.000001 -0.000000 0.000005 -40.679876 10.012685 34.996919 31.748796 -3.344338 3.336928 13.104610 -0.457096 -19.822068 -4.578473 -0.000009 -0.000003 0.000000 -0.000001 -0.000000 -4.490718 -23.918916 -31.130179 28.753601 -6.000753 -8.072470 -8.188813 -11.278067 25.221309 -1.732082 0.000026 -0.000002 0.000000 -0.000000 -0.000000 
-0.684736 75.719055 0.812727 -3.586417 -57.275583 -5.963855 -0.112958 2.970423 -0.242805 0.261301 4.695115 0.241799 0.190802 4.701389 0.258637 21.084060 3.724501 7.184684 6.378316 26.958711 -0.644105 0.000000 0.000000 -0.000001 0.533914 -2.104576 -5.745389 -46.162370 -16.295626 -51.335698 -0.000010 -64.090035 -0.000013 -147.618761 -5.873509 31.185349 0.480487 2.531470 -21.490652 0.480473 2.531450 -21.490663 0.121094 1.288320 -10.740025 -0.000001 0.000001 -0.000001 -1.540035 3.690181 6.142353 3.939042 7.948701 0.746812 -0.579466 1.575000 2.538717 0.000001 0.000001 0.000000 0.647662 -3.587606 10.882633 -32.477430 72.293953 64.315889 0.000018 99.136815 -0.000004 -63.571269 -13.456934 -50.975075 -1.849239 -3.581772 -6.586148 4.637198 -8.634139 -0.225401 -1.273760 0.137303 -2.094883 0.000001 0.000000 -0.000002 3.536997 -6.056815 60.536971 3.537031 -6.056807 60.536977 0.945239 -3.505317 30.174888 -0.000000 -0.000000 0.000003 -41.394638 9.677942 35.243366 31.449247 -3.630501 3.393352 13.053554 -0.452131 -19.996359 -4.637222 0.000007 -0.000003 -0.000000 0.000001 -0.000000 -4.048311 -23.891322 -29.974244 28.212887 -6.251261 -7.601363 -7.925382 -12.405726 24.586016 -1.950049 0.000020 -0.000001 -0.000000 -0.000001 0.000002 
-1.243639 75.904129 0.923187 -2.929218 -57.880594 -5.734345 -0.331331 3.246621 -0.085545 0.062209 5.104724 0.366799 -0.031227 5.111070 0.376766 20.945682 3.839147 7.525076 4.259118 27.338785 0.105876 -0.000003 0.000003 0.000001 0.511066 -1.976306 -4.446795 -46.892838 -16.353590 -51.198412 -0.000063 -63.859059 -0.000069 -149.127386 -5.510328 32.431261 0.480485 2.531470 -21.490652 0.480470 2.531457 -21.490666 0.121096 1.288320 -10.740023 -0.000003 0.000001 -0.000000 -1.540037 3.690185 6.142355 3.939049 7.948703 0.746813 -0.579466 1.575003 2.538717 -0.000001 0.000000 -0.000000 0.640988 -3.820796 10.839933 -36.049974 73.715404 67.239975 -0.000231 97.147003 0.000250 -65.671763 -4.534589 -48.996355 -1.849238 -3.581772 -6.586146 4.637196 -8.634139 -0.225402 -1.273762 0.137302 -2.094882 -0.000001 0.000000 0.000000 3.537014 -6.056797 60.536977 3.537013 -6.056813 60.536991 0.945235 -3.505300 30.174881 -0.000000 -0.000000 0.000001 -41.150411 9.443127 35.633298 31.645807 -3.537896 3.847797 12.274355 -0.338852 -20.119384 -5.078458 0.000015 0.000001 0.000000 -0.000000 -0.000000 -3.830716 -23.619504 -29.190289 27.782896 -6.471823 -7.400242 -7.729431 -12.650267 23.941867 -2.065527 -0.000017 0.000014 0.000001 0.000002 -0.000000 
-1.243639 75.904129 0.923187 -2.929218 -57.880594 -5.734345 -0.331331 3.246621 -0.085545 0.062209 5.104724 0.366799 -0.031227 5.111070 0.376766 20.945682 3.839147 7.525076 4.259118 27.338785 0.105876 -0.000003 0.000003 0.000001 0.511066 -1.976306 -4.446795 -46.892838 -16.353590 -51.198412 -0.000063 -63.859059 -0.000069 -149.127386 -5.510328 32.431261 0.480485 2.531470 -21.490652 0.480470 2.531457 -21.490666 0.121096 1.288320 -10.740023 -0.000003 0.000001 -0.000000 -1.540037 3.690185 6.142355 3.939049 7.948703 0.746813 -0.579466 1.575003 2.538717 -0.000001 0.000000 -0.000000 0.640988 -3.820796 10.839933 -36.049974 73.715404 67.239975 -0.000231 97.147003 0.000250 -65.671763 -4.534589 -48.996355 -1.849238 -3.581772 -6.586146 4.637196 -8.634139 -0.225402 -1.273762 0.137302 -2.094882 -0.000001 0.000000 0.000000 3.537014 -6.056797 60.536977 3.537013 -6.056813 60.536991 0.945235 -3.505300 30.174881 -0.000000 -0.000000 0.000001 -41.150411 9.443127 35.633298 31.645807 -3.537896 3.847797 12.274355 -0.338852 -20.119384 -5.078458 0.000015 0.000001 0.000000 -0.000000 -0.000000 -3.830716 -23.619504 -29.190289 27.782896 -6.471823 -7.400242 -7.729431 -12.650267 23.941867 -2.065527 -0.000017 0.000014 0.000001 0.000002 -0.000000 
